<svg width="64" height="64" viewBox="0 0 64 64" fill="none" xmlns="http://www.w3.org/2000/svg">
<path d="M32.0007 5.33325C17.2731 5.33325 5.33398 17.2723 5.33398 31.9999C5.33398 46.7275 17.2731 58.6666 32.0007 58.6666C46.7282 58.6666 58.6673 46.7275 58.6673 31.9999C58.6673 17.2723 46.7282 5.33325 32.0007 5.33325Z" fill="#51F579"/>
<path fill-rule="evenodd" clip-rule="evenodd" d="M41.8863 24.781C42.9277 25.8224 42.9277 27.5109 41.8863 28.5523L31.2196 39.219C30.1782 40.2603 28.4898 40.2603 27.4484 39.219L22.115 33.8856C21.0736 32.8442 21.0736 31.1558 22.115 30.1144C23.1564 29.073 24.8449 29.073 25.8863 30.1144L29.334 33.5621L38.115 24.781C39.1564 23.7397 40.8449 23.7397 41.8863 24.781Z" fill="#5A2ECB"/>
</svg>
