<svg width="24" height="24" viewBox="0 0 24 24" fill="none" xmlns="http://www.w3.org/2000/svg">
<path d="M12.0016 22C13.9792 21.9997 15.9124 21.413 17.5567 20.314C19.2009 19.2151 20.4824 17.6533 21.2391 15.8261C21.9958 13.9989 22.1937 11.9884 21.8078 10.0487C21.4219 8.10905 20.4695 6.32737 19.0711 4.92894C17.6726 3.53051 15.8909 2.57813 13.9513 2.19223C12.0116 1.80633 10.0011 2.00423 8.17389 2.76091C6.34669 3.51759 4.78489 4.79907 3.68596 6.44332C2.58702 8.08757 2.00031 10.0208 2 11.9984C1.99979 13.3119 2.25835 14.6126 2.7609 15.8261C3.26346 17.0397 4.00016 18.1423 4.92893 19.0711C5.8577 19.9998 6.96035 20.7365 8.17389 21.2391C9.38743 21.7416 10.6881 22.0002 12.0016 22V22Z" stroke="#808D9A" stroke-width="2" stroke-linecap="round" stroke-linejoin="round"/>
<path d="M2.5 15.1367H21.2137" stroke="#808D9A" stroke-width="2" stroke-linecap="round" stroke-linejoin="round"/>
<path d="M2.5 8.86133H21.2137" stroke="#808D9A" stroke-width="2" stroke-linecap="round" stroke-linejoin="round"/>
<path d="M9.84441 2.23438C8.04956 8.71036 8.3138 15.5843 10.6005 21.9034" stroke="#808D9A" stroke-width="2" stroke-linecap="round" stroke-linejoin="round"/>
<path d="M14.1576 2.23438C14.9416 5.05266 15.3374 7.96475 15.3341 10.8901C15.342 14.6451 14.6922 18.3725 13.4141 21.9034" stroke="#808D9A" stroke-width="2" stroke-linecap="round" stroke-linejoin="round"/>
</svg>
