<svg width="64" height="64" viewBox="0 0 64 64" fill="none" xmlns="http://www.w3.org/2000/svg">
<path fill-rule="evenodd" clip-rule="evenodd" d="M26.6655 9.33594C26.6655 7.1268 28.4564 5.33594 30.6655 5.33594H33.3322C35.5413 5.33594 37.3322 7.1268 37.3322 9.33594V10.3078C37.3322 10.9162 37.7455 11.4432 38.3265 11.6234C39.5824 12.0129 40.7887 12.5154 41.9334 13.1188C42.4717 13.4026 43.1366 13.3222 43.5669 12.8919L44.2552 12.2036C45.8173 10.6415 48.35 10.6415 49.9121 12.2036L51.7977 14.0892C53.3598 15.6513 53.3598 18.184 51.7977 19.7461L51.1094 20.4344C50.6791 20.8647 50.5987 21.5296 50.8825 22.0679C51.486 23.2127 51.9884 24.419 52.378 25.6749C52.5582 26.256 53.0852 26.6693 53.6936 26.6693H54.6654C56.8745 26.6693 58.6654 28.4601 58.6654 30.6693V33.3359C58.6654 35.5451 56.8745 37.3359 54.6654 37.3359H53.6936C53.0852 37.3359 52.5582 37.7492 52.378 38.3303C51.9884 39.5862 51.486 40.7925 50.8825 41.9373C50.5987 42.4756 50.6791 43.1405 51.1094 43.5708L51.7977 44.2591C53.3598 45.8212 53.3598 48.3539 51.7977 49.916L49.9121 51.8016C48.35 53.3637 45.8173 53.3637 44.2552 51.8016L43.5669 51.1133C43.1366 50.683 42.4716 50.6026 41.9334 50.8864C40.7887 51.4898 39.5824 51.9923 38.3265 52.3818C37.7455 52.562 37.3322 53.089 37.3322 53.6974V54.6693C37.3322 56.8784 35.5413 58.6693 33.3322 58.6693H30.6655C28.4564 58.6693 26.6655 56.8784 26.6655 54.6693V53.6975C26.6655 53.0891 26.2523 52.5621 25.6712 52.3819C24.4152 51.9924 23.2088 51.4899 22.064 50.8864C21.5257 50.6026 20.8608 50.683 20.4305 51.1133L19.7422 51.8016C18.1801 53.3637 15.6474 53.3637 14.0853 51.8016L12.1997 49.916C10.6376 48.3539 10.6376 45.8212 12.1997 44.2591L12.888 43.5708C13.3183 43.1405 13.3987 42.4756 13.1149 41.9373C12.5114 40.7925 12.009 39.5862 11.6194 38.3303C11.4392 37.7492 10.9122 37.3359 10.3038 37.3359H9.33203C7.12289 37.3359 5.33203 35.5451 5.33203 33.3359V30.6693C5.33203 28.4601 7.12289 26.6693 9.33203 26.6693H10.3038C10.9122 26.6693 11.4392 26.256 11.6194 25.6749C12.009 24.419 12.5114 23.2127 13.1149 22.0679C13.3987 21.5296 13.3183 20.8647 12.888 20.4344L12.1997 19.7461C10.6376 18.184 10.6376 15.6513 12.1997 14.0892L14.0853 12.2036C15.6474 10.6415 18.1801 10.6415 19.7422 12.2036L20.4305 12.8919C20.8608 13.3222 21.5257 13.4026 22.064 13.1188C23.2088 12.5153 24.4152 12.0128 25.6712 11.6233C26.2523 11.4431 26.6655 10.9161 26.6655 10.3077V9.33594Z" fill="#51F579"/>
<path d="M40 32C40 36.4183 36.4183 40 32 40C27.5817 40 24 36.4183 24 32C24 27.5817 27.5817 24 32 24C36.4183 24 40 27.5817 40 32Z" fill="#5A2ECB"/>
</svg>
