<svg width="32" height="32" viewBox="0 0 32 32" fill="none" xmlns="http://www.w3.org/2000/svg">
<path d="M15.9993 2.66663C8.63555 2.66663 2.66602 8.63616 2.66602 16C2.66602 23.3638 8.63555 29.3333 15.9993 29.3333C23.3631 29.3333 29.3327 23.3638 29.3327 16C29.3327 8.63616 23.3631 2.66663 15.9993 2.66663Z" fill="#161FF9"/>
<path fill-rule="evenodd" clip-rule="evenodd" d="M20.9422 12.3905C21.4629 12.9112 21.4629 13.7554 20.9422 14.2761L15.6088 19.6095C15.0881 20.1302 14.2439 20.1302 13.7232 19.6095L11.0565 16.9428C10.5358 16.4221 10.5358 15.5779 11.0565 15.0572C11.5772 14.5365 12.4215 14.5365 12.9422 15.0572L14.666 16.781L19.0565 12.3905C19.5772 11.8698 20.4215 11.8698 20.9422 12.3905Z" fill="white"/>
</svg>
