<svg width="26" height="20" viewBox="0 0 26 20" fill="none" xmlns="http://www.w3.org/2000/svg">
<path fill-rule="evenodd" clip-rule="evenodd" d="M0.5 1C0.5 0.447715 0.947715 0 1.5 0H24.5C25.0523 0 25.5 0.447715 25.5 1V1.5C25.5 2.05228 25.0523 2.5 24.5 2.5H1.5C0.947716 2.5 0.5 2.05228 0.5 1.5V1ZM0.5 9.75C0.5 9.19771 0.947715 8.75 1.5 8.75H24.5C25.0523 8.75 25.5 9.19771 25.5 9.75V10.25C25.5 10.8023 25.0523 11.25 24.5 11.25H1.5C0.947716 11.25 0.5 10.8023 0.5 10.25V9.75ZM1.5 17.5C0.947715 17.5 0.5 17.9477 0.5 18.5V19C0.5 19.5523 0.947716 20 1.5 20H24.5C25.0523 20 25.5 19.5523 25.5 19V18.5C25.5 17.9477 25.0523 17.5 24.5 17.5H1.5Z" fill="black"/>
</svg>
