<svg width="28" height="28" viewBox="0 0 28 28" fill="none" xmlns="http://www.w3.org/2000/svg">
<path d="M4.66797 7.93398C4.66797 5.9738 4.66797 4.99371 5.04945 4.24502C5.385 3.58645 5.92043 3.05102 6.579 2.71546C7.32769 2.33398 8.30778 2.33398 10.268 2.33398H17.1216C17.6923 2.33398 17.9776 2.33398 18.2462 2.39845C18.4843 2.45561 18.7119 2.54989 18.9206 2.67782C19.1561 2.82212 19.3579 3.0239 19.7614 3.42745L22.2412 5.90718C22.6447 6.31074 22.8465 6.51251 22.9908 6.74799C23.1187 6.95676 23.213 7.18436 23.2702 7.42244C23.3346 7.69098 23.3346 7.97634 23.3346 8.54705V20.0673C23.3346 22.0275 23.3346 23.0076 22.9532 23.7563C22.6176 24.4149 22.0822 24.9503 21.4236 25.2858C20.6749 25.6673 19.6948 25.6673 17.7346 25.6673H10.268C8.30778 25.6673 7.32769 25.6673 6.579 25.2858C5.92043 24.9503 5.385 24.4149 5.04945 23.7563C4.66797 23.0076 4.66797 22.0275 4.66797 20.0673V7.93398Z" fill="#51F579"/>
<path fill-rule="evenodd" clip-rule="evenodd" d="M18.3237 12.0077C18.7793 12.4633 18.7793 13.202 18.3237 13.6576L13.657 18.3243C13.2014 18.7799 12.4627 18.7799 12.0071 18.3243L9.67374 15.991C9.21813 15.5354 9.21813 14.7967 9.67374 14.3411C10.1294 13.8854 10.868 13.8854 11.3237 14.3411L12.832 15.8494L16.6737 12.0077C17.1294 11.5521 17.868 11.5521 18.3237 12.0077Z" fill="#5A2ECB"/>
<path d="M16.332 3.9839C16.332 3.07268 17.0707 2.33398 17.9819 2.33398C18.4195 2.33398 18.8392 2.50781 19.1486 2.81723L22.8488 6.5174C23.1582 6.82682 23.332 7.24648 23.332 7.68407C23.332 8.59529 22.5933 9.33398 21.6821 9.33398H18.6654C17.3767 9.33398 16.332 8.28932 16.332 7.00065V3.9839Z" fill="#5A2ECB"/>
</svg>
