<svg width="64" height="64" viewBox="0 0 64 64" fill="none" xmlns="http://www.w3.org/2000/svg">
<path d="M8 25.0667C8 19.0928 8 16.1058 9.1626 13.8241C10.1852 11.817 11.817 10.1852 13.8241 9.1626C16.1058 8 19.0928 8 25.0667 8H38.9333C44.9072 8 47.8942 8 50.1759 9.1626C52.183 10.1852 53.8148 11.817 54.8374 13.8241C56 16.1058 56 19.0928 56 25.0667V38.9333C56 44.9072 56 47.8942 54.8374 50.1759C53.8148 52.183 52.183 53.8148 50.1759 54.8374C47.8942 56 44.9072 56 38.9333 56H25.0667C19.0928 56 16.1058 56 13.8241 54.8374C11.817 53.8148 10.1852 52.183 9.1626 50.1759C8 47.8942 8 44.9072 8 38.9333V25.0667Z" fill="#51F579"/>
<path fill-rule="evenodd" clip-rule="evenodd" d="M41.8843 24.781C42.9257 25.8224 42.9257 27.5109 41.8843 28.5523L31.2176 39.219C30.1763 40.2603 28.4878 40.2603 27.4464 39.219L22.1131 33.8856C21.0717 32.8442 21.0717 31.1558 22.1131 30.1144C23.1545 29.073 24.8429 29.073 25.8843 30.1144L29.332 33.5621L38.1131 24.781C39.1545 23.7397 40.8429 23.7397 41.8843 24.781Z" fill="#5A2ECB"/>
</svg>
