<svg width="24" height="24" viewBox="0 0 24 24" fill="none" xmlns="http://www.w3.org/2000/svg">
<path fill-rule="evenodd" clip-rule="evenodd" d="M8.39856 2H15.6014C16.4959 1.99999 17.234 1.99997 17.8354 2.04911C18.4599 2.10013 19.034 2.20965 19.5733 2.48442C20.4096 2.91052 21.0895 3.59043 21.5156 4.42671C21.7904 4.96597 21.8999 5.54009 21.9509 6.16464C22 6.76596 22 7.50413 22 8.39853V15.6015C22 16.4959 22 17.234 21.9509 17.8354C21.8999 18.4599 21.7904 19.034 21.5156 19.5733C21.0895 20.4096 20.4096 21.0895 19.5733 21.5156C19.034 21.7904 18.4599 21.8999 17.8354 21.9509C17.234 22 16.4959 22 15.6015 22H8.39853C7.50413 22 6.76596 22 6.16464 21.9509C5.54009 21.8999 4.96597 21.7904 4.42671 21.5156C3.59043 21.0895 2.91052 20.4096 2.48442 19.5733C2.20965 19.034 2.10013 18.4599 2.04911 17.8354C1.99997 17.234 1.99999 16.4959 2 15.6014V8.39856C1.99999 7.50415 1.99997 6.76597 2.04911 6.16464C2.10013 5.54009 2.20965 4.96597 2.48442 4.42671C2.91052 3.59043 3.59043 2.91052 4.42671 2.48442C4.96597 2.20965 5.54009 2.10013 6.16464 2.04911C6.76597 1.99997 7.50415 1.99999 8.39856 2ZM6.3456 4.26395C5.85847 4.30375 5.60935 4.37589 5.43558 4.46443C5.01744 4.67748 4.67748 5.01744 4.46443 5.43558C4.37589 5.60935 4.30375 5.85847 4.26395 6.3456C4.22309 6.8457 4.22222 7.49269 4.22222 8.44445V15.5556C4.22222 16.5073 4.22309 17.1543 4.26395 17.6544C4.30375 18.1415 4.37589 18.3906 4.46443 18.5644C4.67748 18.9826 5.01744 19.3225 5.43558 19.5356C5.60935 19.6241 5.85847 19.6963 6.3456 19.7361C6.8457 19.7769 7.49269 19.7778 8.44445 19.7778H15.5556C16.5073 19.7778 17.1543 19.7769 17.6544 19.7361C18.1415 19.6963 18.3906 19.6241 18.5644 19.5356C18.9826 19.3225 19.3225 18.9826 19.5356 18.5644C19.6241 18.3906 19.6963 18.1415 19.7361 17.6544C19.7769 17.1543 19.7778 16.5073 19.7778 15.5556V8.44445C19.7778 7.49269 19.7769 6.8457 19.7361 6.3456C19.6963 5.85847 19.6241 5.60935 19.5356 5.43558C19.3225 5.01744 18.9826 4.67748 18.5644 4.46443C18.3906 4.37589 18.1415 4.30375 17.6544 4.26395C17.1543 4.22309 16.5073 4.22222 15.5556 4.22222H8.44445C7.49269 4.22222 6.8457 4.22309 6.3456 4.26395Z" fill="black" fill-opacity="0.65"/>
<path fill-rule="evenodd" clip-rule="evenodd" d="M7.2 8.4C7.86274 8.4 8.4 7.86274 8.4 7.2C8.4 6.53726 7.86274 6 7.2 6C6.53726 6 6 6.53726 6 7.2C6 7.86274 6.53726 8.4 7.2 8.4ZM7.2 10.8C6.53726 10.8 6 11.3373 6 12V16.8C6 17.4627 6.53726 18 7.2 18C7.86274 18 8.4 17.4627 8.4 16.8V12C8.4 11.3373 7.86274 10.8 7.2 10.8ZM14.4 13.2C13.7373 13.2 13.2 13.7373 13.2 14.4V16.8C13.2 17.4627 12.6627 18 12 18C11.3373 18 10.8 17.4627 10.8 16.8V14.4V12C10.8 11.3373 11.3373 10.8 12 10.8C12.3311 10.8 12.6308 10.9341 12.8479 11.1508C13.3179 10.9259 13.8442 10.8 14.4 10.8C16.3882 10.8 18 12.4118 18 14.4V16.8C18 17.4627 17.4627 18 16.8 18C16.1373 18 15.6 17.4627 15.6 16.8V14.4C15.6 13.7373 15.0627 13.2 14.4 13.2Z" fill="black" fill-opacity="0.65"/>
</svg>
