<svg width="44" height="44" viewBox="0 0 44 44" fill="none" xmlns="http://www.w3.org/2000/svg">
<rect width="44" height="44" rx="8" fill="#0078B5"/>
<path d="M10.6956 17.8868H15.4988V33.3444H10.6956V17.8868ZM13.099 10.2031C14.635 10.2031 15.8819 11.45 15.8819 12.9896C15.8819 14.5292 14.635 15.7761 13.099 15.7761C11.5594 15.7761 10.3125 14.5292 10.3125 12.9896C10.3089 11.4536 11.5558 10.2031 13.099 10.2031Z" fill="white"/>
<path d="M18.5137 17.8867H23.1217V19.9974H23.1867C23.8264 18.783 25.3914 17.5 27.7333 17.5C32.598 17.5 33.4979 20.7021 33.4979 24.862V33.3444H28.6947V25.8306C28.6947 24.0344 28.6622 21.7322 26.1973 21.7322C23.6963 21.7322 23.3132 23.6838 23.3132 25.7005V33.348H18.5137V17.8867Z" fill="white"/>
</svg>
