<svg width="121" height="42" viewBox="0 0 121 42" fill="none" xmlns="http://www.w3.org/2000/svg">
<path d="M4.8136 41.6898L3.3561 39.6029H1.74822V41.6898H0V34.2012H3.26988C3.93949 34.2012 4.5189 34.3124 5.01208 34.5331C5.50527 34.7536 5.88419 35.0676 6.15083 35.4751C6.41748 35.8825 6.54979 36.3635 6.54979 36.9199C6.54979 37.4764 6.41546 37.9554 6.14482 38.3588C5.87417 38.7623 5.49123 39.0704 4.99604 39.285L6.69013 41.6918H4.8136V41.6898ZM4.37055 35.9501C4.09788 35.7255 3.69691 35.6123 3.17366 35.6123H1.74822V38.2217H3.17366C3.69891 38.2217 4.09788 38.1083 4.37055 37.8798C4.64319 37.6512 4.77952 37.3313 4.77952 36.9179C4.78153 36.4966 4.64319 36.1747 4.37055 35.9501Z" fill="#55C724"/>
<path d="M20.8841 40.2986V41.6898H8.33594V34.2012H20.7438V35.5923H10.0741V37.218H20.2808V38.5656H10.0741V40.2986H20.8841Z" fill="#55C724"/>
<path d="M23.4471 40.9305C22.8456 40.3383 22.5469 39.4937 22.5469 38.3946V34.2012H24.2951V38.331C24.2951 39.6725 24.8565 40.3422 25.9792 40.3422C26.5265 40.3422 26.9435 40.1793 27.2302 39.8554C27.517 39.5314 27.6613 39.0226 27.6613 38.331V34.2012H29.3875V38.3946C29.3875 39.4937 29.0867 40.3383 28.4873 40.9305C27.8858 41.5228 27.0459 41.8189 25.9671 41.8189C24.8865 41.817 24.0465 41.5208 23.4471 40.9305Z" fill="#55C724"/>
<path d="M32.2495 41.5768C31.6921 41.4159 31.2431 41.2072 30.9062 40.9507L31.4997 39.645C31.8245 39.8796 32.2073 40.0684 32.6545 40.2115C33.1016 40.3545 33.5466 40.4261 33.9918 40.4261C34.4888 40.4261 34.8558 40.3526 35.0923 40.2075C35.3289 40.0604 35.4492 39.8676 35.4492 39.6251C35.4492 39.4463 35.379 39.2993 35.2386 39.182C35.0983 39.0647 34.9179 38.9694 34.6994 38.8978C34.4809 38.8263 34.1842 38.7487 33.8093 38.6632C33.2338 38.528 32.7627 38.393 32.3958 38.2578C32.029 38.1226 31.7142 37.9041 31.4516 37.606C31.1889 37.3058 31.0587 36.9064 31.0587 36.4075C31.0587 35.9723 31.1768 35.5788 31.4155 35.225C31.6521 34.8712 32.011 34.593 32.49 34.3843C32.9692 34.1776 33.5525 34.0742 34.2443 34.0742C34.7255 34.0742 35.1966 34.132 35.6576 34.2452C36.1188 34.3585 36.5218 34.5234 36.8667 34.738L36.3273 36.0538C35.6295 35.6622 34.932 35.4655 34.2342 35.4655C33.7451 35.4655 33.3843 35.5429 33.1497 35.6999C32.9151 35.8569 32.7988 36.0636 32.7988 36.3201C32.7988 36.5765 32.9332 36.7673 33.2038 36.8925C33.4744 37.0177 33.8855 37.1409 34.4387 37.2621C35.0141 37.3973 35.4852 37.5323 35.8522 37.6675C36.219 37.8027 36.5337 38.0173 36.7964 38.3095C37.0591 38.6017 37.1893 38.9971 37.1893 39.496C37.1893 39.9232 37.0691 40.3148 36.8285 40.6666C36.588 41.0203 36.2251 41.2985 35.7439 41.5072C35.2627 41.714 34.6753 41.8173 33.9856 41.8173C33.3821 41.8173 32.8069 41.7377 32.2495 41.5768Z" fill="#55C724"/>
<path d="M51.3999 40.2986V41.6898H38.8516V34.2012H51.2595V35.5923H40.5899V37.218H50.7963V38.5656H40.5899V40.2986H51.3999Z" fill="#55C724"/>
<path d="M69.2592 40.2986V41.6898H56.7109V34.2012H69.1189V35.5923H58.4492V37.218H68.6557V38.5656H58.4492V40.2986H69.2592Z" fill="#55C724"/>
<path d="M76.2574 40.084H72.7509L72.0813 41.6879H70.2891L73.6551 34.1992H75.3813L78.7594 41.6879H76.9251L76.2574 40.084ZM75.7061 38.7684L74.5092 35.9025L73.3122 38.7684H75.7061Z" fill="#55C724"/>
<path d="M80.9135 41.5768C80.3562 41.4159 79.9072 41.2072 79.5703 40.9507L80.1637 39.645C80.4886 39.8796 80.8714 40.0684 81.3185 40.2115C81.7657 40.3545 82.2107 40.4261 82.6558 40.4261C83.1529 40.4261 83.5198 40.3526 83.7564 40.2075C83.9929 40.0604 84.1133 39.8676 84.1133 39.6251C84.1133 39.4463 84.043 39.2993 83.9028 39.182C83.7625 39.0647 83.582 38.9694 83.3635 38.8978C83.1449 38.8263 82.8482 38.7487 82.4733 38.6632C81.8979 38.528 81.4268 38.393 81.0598 38.2578C80.693 38.1226 80.3783 37.9041 80.1156 37.606C79.853 37.3058 79.7227 36.9064 79.7227 36.4075C79.7227 35.9723 79.8409 35.5788 80.0796 35.225C80.3161 34.8712 80.675 34.593 81.1541 34.3843C81.6333 34.1776 82.2166 34.0742 82.9084 34.0742C83.3896 34.0742 83.8607 34.132 84.3217 34.2452C84.7829 34.3585 85.1859 34.5234 85.5307 34.738L84.9913 36.0538C84.2938 35.6622 83.596 35.4655 82.8983 35.4655C82.4092 35.4655 82.0483 35.5429 81.8138 35.6999C81.5792 35.8569 81.4628 36.0636 81.4628 36.3201C81.4628 36.5765 81.5972 36.7673 81.8678 36.8925C82.1384 37.0177 82.5495 37.1409 83.1028 37.2621C83.6782 37.3973 84.1493 37.5323 84.5163 37.6675C84.8831 37.8027 85.1978 38.0173 85.4605 38.3095C85.7231 38.6017 85.8534 38.9971 85.8534 39.496C85.8534 39.9232 85.7332 40.3148 85.4925 40.6666C85.252 41.0203 84.8892 41.2985 84.408 41.5072C83.9268 41.714 83.3393 41.8173 82.6497 41.8173C82.0483 41.8173 81.4709 41.7377 80.9135 41.5768Z" fill="#55C724"/>
<path d="M91.1812 39.0366V41.6898H89.433V39.0146L86.5078 34.2012H88.3643L90.3811 37.528L92.3981 34.2012H94.1143L91.1812 39.0366Z" fill="#55C724"/>
<path d="M113.456 0L120.906 2.84201L106.999 32.5062L105.353 31.8801L103.709 31.2521L104.782 27.8099H102.207L95.2578 7.50842H100.649L106.125 23.5043L113.456 0Z" fill="#3500BE"/>
<path fill-rule="evenodd" clip-rule="evenodd" d="M4.13799 27.8163H0V1.45508H5.32083V10.0887C6.98206 8.26891 9.13572 7.14888 11.2219 7.14888C17.0841 7.14888 21.2621 11.877 21.2621 17.6882C21.2621 23.4993 17.0841 28.2274 11.2219 28.2274C8.99169 28.2274 6.68437 26.9474 4.98398 24.9009L4.13799 27.8163ZM5.32083 17.5668V17.8095C5.37982 20.9714 7.73836 23.5233 10.6305 23.5233C13.5596 23.5233 15.9413 20.9058 15.9413 17.6882C15.9393 14.4725 13.5576 11.8531 10.6305 11.8531C7.74031 11.8531 5.37984 14.405 5.32083 17.5668Z" fill="#3500BE"/>
<path d="M77.5 27.8164H94.114V23.128H83.8011L94.114 11.6645V7.5625H78.3239V12.2508H87.8128L77.5 23.7143V27.8164Z" fill="#3500BE"/>
<path d="M27.8469 27.8155H22.4961V7.53584H26.658L27.5763 10.3863C28.4281 8.37777 30.0584 7.14844 33.1578 7.14844H34.469V12.423H33.1578C30.1652 12.425 27.8543 14.7112 27.8469 17.6735V27.8155Z" fill="#3500BE"/>
<path fill-rule="evenodd" clip-rule="evenodd" d="M77.5003 19.7387C77.5003 19.7387 77.6226 18.5583 77.6226 17.6878C77.6226 14.8735 76.516 12.2263 74.5092 10.2349C72.5003 8.24549 69.8319 7.14844 66.991 7.14844C64.1521 7.14844 61.4817 8.24549 59.4728 10.2349C57.4661 12.2263 56.3594 14.8715 56.3594 17.6878C56.3594 20.5019 57.4661 23.1491 59.4728 25.1405C61.4817 27.1299 64.1502 28.227 66.991 28.227C69.8299 28.227 72.5003 27.1299 74.5092 25.1405L70.6899 21.8673C69.7337 22.8908 68.4304 23.5228 66.993 23.5228C64.7223 23.5228 62.7785 21.9475 62.0209 19.7387H77.5003ZM66.993 11.8527C69.2654 11.8527 71.2083 13.428 71.9652 15.6367H62.0208C62.7777 13.428 64.7206 11.8527 66.993 11.8527Z" fill="#3500BE"/>
<path fill-rule="evenodd" clip-rule="evenodd" d="M55.3128 19.7387C55.3128 19.7387 55.4351 18.5583 55.4351 17.6878C55.4351 14.8735 54.3285 12.2263 52.3217 10.2349C50.3128 8.24549 47.6444 7.14844 44.8035 7.14844C41.9648 7.14844 39.2942 8.24549 37.2855 10.2349C35.2786 12.2263 34.1719 14.8715 34.1719 17.6878C34.1719 20.5019 35.2786 23.1491 37.2855 25.1405C39.2942 27.1299 41.9627 28.227 44.8035 28.227C47.6424 28.227 50.3128 27.1299 52.3217 25.1405L48.5024 21.8673C47.5462 22.8908 46.2431 23.5228 44.8055 23.5228C42.5348 23.5228 40.591 21.9475 39.8336 19.7387H55.3128ZM44.8055 11.8527C47.0779 11.8527 49.0208 13.428 49.7779 15.6367H39.8333C40.5903 13.428 42.5333 11.8527 44.8055 11.8527Z" fill="#3500BE"/>
<path d="M103.188 41.9992C105.446 41.9992 107.277 40.1841 107.277 37.9449C107.277 35.7058 105.446 33.8906 103.188 33.8906C100.929 33.8906 99.0977 35.7058 99.0977 37.9449C99.0977 40.1841 100.929 41.9992 103.188 41.9992Z" fill="#3500BE"/>
</svg>
