<svg width="64" height="64" viewBox="0 0 64 64" fill="none" xmlns="http://www.w3.org/2000/svg">
<path fill-rule="evenodd" clip-rule="evenodd" d="M19.3628 26.2645C22.6875 23.2045 27.1258 21.3359 32.0005 21.3359C36.8753 21.3359 41.3136 23.2045 44.6383 26.2645L52.8273 11.2514C54.2812 8.58585 52.352 5.33594 49.3157 5.33594H40.4722C38.5353 5.33594 36.7506 6.38603 35.81 8.07918L32.0005 14.9364L28.1909 8.07918C27.2503 6.38603 25.4656 5.33594 23.5287 5.33594H14.6853C11.6491 5.33594 9.71985 8.58585 11.1738 11.2514L19.3628 26.2645Z" fill="#5A2ECB"/>
<path d="M50.6654 40.0026C50.6654 50.3119 42.308 58.6693 31.9987 58.6693C21.6894 58.6693 13.332 50.3119 13.332 40.0026C13.332 29.6933 21.6894 21.3359 31.9987 21.3359C42.308 21.3359 50.6654 29.6933 50.6654 40.0026Z" fill="#51F579"/>
<path fill-rule="evenodd" clip-rule="evenodd" d="M32.0013 45.3307C34.9468 45.3307 37.3346 42.9429 37.3346 39.9974C37.3346 37.0519 34.9468 34.6641 32.0013 34.6641C29.0558 34.6641 26.668 37.0519 26.668 39.9974C26.668 42.9429 29.0558 45.3307 32.0013 45.3307Z" fill="#5A2ECB"/>
</svg>
