<svg width="44" height="44" viewBox="0 0 44 44" fill="none" xmlns="http://www.w3.org/2000/svg">
<rect width="44" height="44" rx="8" fill="#24ACFF"/>
<path d="M16.895 33.1762C27.2702 33.1762 32.9506 24.5786 32.9506 17.1206C32.9506 16.8786 32.9506 16.6322 32.933 16.3902C34.0374 15.5894 34.9922 14.6038 35.749 13.4686C34.7194 13.9262 33.6282 14.2254 32.5106 14.3574C33.6898 13.6534 34.5698 12.5446 34.9922 11.2378C33.8834 11.8934 32.6734 12.3598 31.4106 12.6062C29.2722 10.3358 25.6994 10.2258 23.429 12.3598C21.9638 13.737 21.3434 15.7918 21.7966 17.7498C17.2602 17.521 13.0318 15.3782 10.1674 11.8538C8.67141 14.4322 9.43261 17.7278 11.9142 19.3866C11.0166 19.3602 10.1366 19.1182 9.35341 18.6826C9.35341 18.7046 9.35341 18.731 9.35341 18.753C9.35341 21.437 11.2454 23.7514 13.881 24.2838C13.0494 24.5082 12.1782 24.5434 11.3334 24.3806C12.0726 26.6774 14.189 28.2526 16.6046 28.301C14.607 29.8718 12.1386 30.7254 9.59981 30.721C9.15101 30.721 8.70221 30.6946 8.25781 30.6374C10.8274 32.2962 13.8326 33.1762 16.895 33.1718" fill="white"/>
</svg>
