<svg width="24" height="24" viewBox="0 0 24 24" fill="none" xmlns="http://www.w3.org/2000/svg">
<g clip-path="url(#clip0_16730_226810)">
<path d="M24.0008 4.575C23.1008 4.95 22.2008 5.25 21.1508 5.325C22.2008 4.725 22.9508 3.75 23.3258 2.625C22.3508 3.225 21.3008 3.6 20.1758 3.825C19.2758 2.85 18.0008 2.25 16.6508 2.25C13.9508 2.25 11.7008 4.425 11.7008 7.2C11.7008 7.575 11.7758 7.95 11.8508 8.325C7.72578 8.1 4.12578 6.15 1.65078 3.15C1.20078 3.9 0.975781 4.725 0.975781 5.625C0.975781 7.35 1.87578 8.85 3.15078 9.75C2.32578 9.75 1.57578 9.525 0.900781 9.15V9.225C0.900781 11.625 2.62578 13.575 4.87578 14.025C4.42578 14.1 4.05078 14.175 3.60078 14.175C3.30078 14.175 3.00078 14.175 2.70078 14.1C3.30078 16.05 5.17578 17.475 7.27578 17.55C5.62578 18.9 3.45078 19.65 1.12578 19.65C0.750781 19.65 0.300781 19.65 -0.0742188 19.575C2.17578 20.925 4.80078 21.75 7.57578 21.75C16.6508 21.75 21.6008 14.25 21.6008 7.725C21.6008 7.5 21.6008 7.275 21.6008 7.125C22.5008 6.375 23.3258 5.55 24.0008 4.575Z" fill="black" fill-opacity="0.65"/>
</g>
<defs>
<clipPath id="clip0_16730_226810">
<rect width="24" height="24" fill="white"/>
</clipPath>
</defs>
</svg>
